<?xml version="1.0" encoding="UTF-8"?>
<svg xmlns="http://www.w3.org/2000/svg" xmlns:xlink="http://www.w3.org/1999/xlink" width="50pt" height="50pt" viewBox="0 0 50 50" version="1.1">
<g id="surface804333">
<path style=" stroke:none;fill-rule:nonzero;fill:rgb(35.294118%,57.647059%,27.058824%);fill-opacity:1;" d="M 25 2 C 12.316406 2 2 12.316406 2 25 C 2 37.683594 12.316406 48 25 48 C 37.683594 48 48 37.683594 48 25 C 48 12.316406 37.683594 2 25 2 Z M 25 7 C 29.261719 7 33.164062 8.484375 36.246094 10.953125 C 35.289062 11.589844 34.699219 12.695312 34.699219 13.898438 C 34.699219 15.5 35.601562 16.898438 36.601562 18.5 C 37.398438 19.800781 38.199219 21.5 38.199219 23.898438 C 38.199219 25.601562 37.699219 27.699219 36.699219 30.300781 L 34.699219 36.898438 L 27.601562 15.699219 C 28.800781 15.601562 29.898438 15.5 29.898438 15.5 C 30.898438 15.398438 30.800781 13.898438 29.800781 13.898438 C 29.800781 13.898438 29.800781 13.898438 29.699219 13.898438 C 29.699219 13.898438 26.5 14.199219 24.398438 14.199219 C 22.5 14.199219 19.199219 13.898438 19.199219 13.898438 C 19.199219 13.898438 19.199219 13.898438 19.101562 13.898438 C 18.101562 13.898438 18 15.5 19 15.5 C 19 15.5 20 15.601562 21.101562 15.699219 L 24.199219 24.101562 L 19.898438 37 L 12.699219 15.601562 C 13.898438 15.5 15 15.398438 15 15.398438 C 16 15.300781 15.898438 13.800781 14.898438 13.800781 C 14.898438 13.800781 14.898438 13.800781 14.800781 13.800781 C 14.800781 13.800781 12.648438 14.003906 10.714844 14.074219 C 14.003906 9.78125 19.167969 7 25 7 Z M 7 25 C 7 23.199219 7.269531 21.464844 7.761719 19.824219 L 15.1875 40.082031 C 10.261719 36.871094 7 31.324219 7 25 Z M 19.679688 42.199219 L 25 26.601562 L 30.683594 42.070312 C 28.898438 42.664062 26.988281 43 25 43 C 23.148438 43 21.359375 42.71875 19.679688 42.199219 Z M 35.304688 39.75 L 40.601562 24.398438 C 41.386719 22.398438 41.808594 20.65625 41.988281 19.097656 C 42.632812 20.945312 43 22.929688 43 25 C 43 31.109375 39.953125 36.496094 35.304688 39.75 Z M 35.304688 39.75 "/>
</g>
</svg>
